<?xml version="1.0" encoding="utf-8"?>
<!-- Generator: Adobe Illustrator 21.0.2, SVG Export Plug-In . SVG Version: 6.00 Build 0)  -->
<svg version="1.1" xmlns="http://www.w3.org/2000/svg" xmlns:xlink="http://www.w3.org/1999/xlink" x="0px" y="0px"
	 viewBox="0 0 500 500" style="enable-background:new 0 0 500 500;" xml:space="preserve">
<style type="text/css">
	.st0{display:none;}
	.st1{display:inline;fill:#FFFFFF;stroke:#000000;stroke-miterlimit:10;}
	.st2{fill:none;stroke:#F6DE00;stroke-width:242;stroke-miterlimit:10;}
	.st3{fill:none;stroke:#835A41;stroke-width:68;stroke-miterlimit:10;}
	.st4{fill:none;stroke:#523920;stroke-width:62;stroke-miterlimit:10;}
	.st5{fill:none;stroke:#523920;stroke-width:51;stroke-miterlimit:10;}
	.st6{opacity:0.49;fill:none;stroke:#FFFFFF;stroke-width:34;stroke-miterlimit:10;}
	.st7{fill:none;stroke:#0E0E0E;stroke-width:9;stroke-miterlimit:10;}
	.st8{fill:none;stroke:#0E0E0E;stroke-width:8;stroke-miterlimit:10;}
</style>
<g id="Layer_1" class="st0">
	<path class="st1" d="M124.5,298.3"/>
</g>
<g id="Layer_3">
	<line class="st2" x1="250" y1="124.5" x2="250" y2="374.5"/>
	<line class="st3" x1="189.5" y1="124.5" x2="189" y2="249"/>
	<line class="st3" x1="313.5" y1="124.5" x2="313" y2="249"/>
	<line class="st4" x1="182.5" y1="273.5" x2="182.5" y2="348.5"/>
	<line class="st4" x1="320" y1="274" x2="320" y2="349"/>
	<line class="st5" x1="151.5" y1="323.5" x2="350.5" y2="323.5"/>
</g>
<g id="Layer_2">
	<line class="st6" x1="126" y1="162.5" x2="375" y2="162.5"/>
	<path class="st7" d="M135.5,374.5h230c5.5,0,10-4.5,10-10v-230c0-5.5-4.5-10-10-10h-230c-5.5,0-10,4.5-10,10v230
		C125.5,370,130,374.5,135.5,374.5z"/>
	<polyline class="st8" points="375.5,274.3 293,274.3 292.5,299 210.5,299 211,274.3 125.5,274.3 	"/>
	<path class="st8" d="M152,125v115c0,5.5,4.5,10,10,10h55c5.5,0,10-4.5,10-10V125.5L152,125z"/>
	<path class="st8" d="M276,125v115c0,5.5,4.5,10,10,10h55c5.5,0,10-4.5,10-10V125.5L276,125z"/>
	<path class="st8" d="M151,274v68c0,5.5,4.5,10,10,10h179c5.5,0,10-4.5,10-10v-68"/>
</g>
</svg>
